<svg width="28" height="28" viewBox="0 0 28 28" fill="none" xmlns="http://www.w3.org/2000/svg">
<path d="M21 9.3331C21 7.47658 20.2625 5.69611 18.9497 4.38335C17.637 3.0706 15.8565 2.3331 14 2.3331C12.1435 2.3331 10.363 3.0706 9.05025 4.38335C7.7375 5.69611 7 7.47658 7 9.3331C7 17.4998 3.5 19.8331 3.5 19.8331H24.5C24.5 19.8331 21 17.4998 21 9.3331Z" fill="#165DFF" fill-opacity="0.1" stroke="black" stroke-width="1.4" stroke-linecap="round" stroke-linejoin="round"/>
<path d="M16.018 24.5C15.8129 24.8536 15.5185 25.1471 15.1643 25.3511C14.81 25.5551 14.4084 25.6625 13.9997 25.6625C13.5909 25.6625 13.1893 25.5551 12.8351 25.3511C12.4808 25.1471 12.1864 24.8536 11.9813 24.5" stroke="black" stroke-width="1.4" stroke-linecap="round" stroke-linejoin="round"/>
</svg>
